<?xml version="1.0" encoding="UTF-8" standalone="no"?>
<svg width="60px" height="60px" viewBox="0 0 60 60" version="1.1" xmlns="http://www.w3.org/2000/svg" xmlns:xlink="http://www.w3.org/1999/xlink" xmlns:sketch="http://www.bohemiancoding.com/sketch/ns">
    <!-- Generator: Sketch 3.2.2 (9983) - http://www.bohemiancoding.com/sketch -->
    <title>Milk</title>
    <desc>Created with Sketch.</desc>
    <defs></defs>
    <g id="stroked" stroke="none" stroke-width="1" fill="none" fill-rule="evenodd" sketch:type="MSPage">
        <g id="Kitchen" sketch:type="MSLayerGroup" transform="translate(-847.000000, -958.000000)" stroke="#000000" stroke-width="2" stroke-linejoin="round">
            <g id="Milk" transform="translate(858.000000, 964.000000)" sketch:type="MSShapeGroup">
                <rect id="Rectangle-770" stroke-linecap="round" x="0" y="27" width="37" height="15"></rect>
                <path d="M15,31 L15,38.0710678" id="Line" stroke-linecap="square"></path>
                <path d="M26,31 L26,38.0710678" id="Line" stroke-linecap="square"></path>
                <path d="M18,31 L18,38" id="Line" stroke-linecap="square"></path>
                <path d="M23,38 L18,38" id="Line" stroke-linecap="square"></path>
                <path d="M6,38 L6,31" id="Line" stroke-linecap="square"></path>
                <path d="M12,38 L12,31" id="Line" stroke-linecap="square"></path>
                <path d="M9,31 L6,31" id="Line" stroke-linecap="square"></path>
                <path d="M12,31 L9,31" id="Line" stroke-linecap="square"></path>
                <path d="M9,31 L9,34" id="Line" stroke-linecap="square"></path>
                <path d="M26,34 L31,34" id="Line" stroke-linecap="square"></path>
                <path d="M31,34 L31,38" id="Line" stroke-linecap="square"></path>
                <path d="M31,34 L31,32" id="Line" stroke-linecap="square"></path>
                <path d="M0,17.0248723 C1.10975041e-16,15.0165815 7,4 7,4 L31,4 C31,4 37,15.0455162 37,17.0682743 L37,52 L0,52 L0,17.0248723 Z" id="Rectangle-771" stroke-linecap="round"></path>
                <rect id="Rectangle-772" stroke-linecap="round" x="14" y="0" width="10" height="6"></rect>
            </g>
        </g>
    </g>
</svg>