<?xml version="1.0" encoding="UTF-8" standalone="no"?>
<svg width="60px" height="60px" viewBox="0 0 60 60" version="1.1" xmlns="http://www.w3.org/2000/svg" xmlns:xlink="http://www.w3.org/1999/xlink" xmlns:sketch="http://www.bohemiancoding.com/sketch/ns">
    <!-- Generator: Sketch 3.2.2 (9983) - http://www.bohemiancoding.com/sketch -->
    <title>Temperature</title>
    <desc>Created with Sketch.</desc>
    <defs></defs>
    <g id="stroked" stroke="none" stroke-width="1" fill="none" fill-rule="evenodd" sketch:type="MSPage">
        <g id="Weather" sketch:type="MSLayerGroup" transform="translate(-726.000000, 4.000000)" stroke-width="2" stroke="#0a3a70">
            <g id="Temperature" transform="translate(732.000000, 0.000000)" sketch:type="MSShapeGroup">
                <g id="Hot">
                    <path d="M15,30.6817919 C19.6398324,32.1533493 23,36.4724217 23,41.5714286 C23,47.8832543 17.8512746,53 11.5,53 C5.14872538,53 0,47.8832543 0,41.5714286 C0,36.4724217 3.36016755,32.1533493 8,30.6817919 L8,13.005103 L15,13.005103 L15,30.6817919 Z" id="Oval-49" stroke-linecap="round" stroke-linejoin="round"></path>
                    <rect id="Rectangle" x="8" y="0" width="7" height="13"></rect>
                    <path d="M11,6 L8.19444444,6" id="Line" stroke-linecap="round" stroke-linejoin="round"></path>
                    <path d="M11,20 L8.19444444,20" id="Line-17" stroke-linecap="round" stroke-linejoin="round"></path>
                    <path d="M11,27 L8.19444444,27" id="Line-17" stroke-linecap="round" stroke-linejoin="round"></path>
                </g>
                <g id="Hot" transform="translate(26.000000, 0.000000)">
                    <path d="M15,30.6817919 C19.6398324,32.1533493 23,36.4724217 23,41.5714286 C23,47.8832543 17.8512746,53 11.5,53 C5.14872538,53 0,47.8832543 0,41.5714286 C0,36.4724217 3.36016755,32.1533493 8,30.6817919 L8,13.005103 L15,13.005103 L15,30.6817919 Z" id="Oval-49" stroke-linecap="round" stroke-linejoin="round"></path>
                    <rect id="Rectangle" x="8" y="0" width="7" height="13"></rect>
                    <path d="M11,6 L8.19444444,6" id="Line" stroke-linecap="round" stroke-linejoin="round"></path>
                    <path d="M11,20 L8.19444444,20" id="Line-17" stroke-linecap="round" stroke-linejoin="round"></path>
                    <path d="M11,27 L8.19444444,27" id="Line-17" stroke-linecap="round" stroke-linejoin="round"></path>
                </g>
            </g>
        </g>
    </g>
</svg>