<?xml version="1.0" encoding="UTF-8" standalone="no"?>
<svg width="60px" height="60px" viewBox="0 0 60 60" version="1.1" xmlns="http://www.w3.org/2000/svg" xmlns:xlink="http://www.w3.org/1999/xlink" xmlns:sketch="http://www.bohemiancoding.com/sketch/ns">
    <!-- Generator: Sketch 3.2.2 (9983) - http://www.bohemiancoding.com/sketch -->
    <title>Drops</title>
    <desc>Created with Sketch.</desc>
    <defs></defs>
    <g id="stroked" stroke="none" stroke-width="1" fill="none" fill-rule="evenodd" sketch:type="MSPage">
        <g id="Weather" sketch:type="MSLayerGroup" transform="translate(-846.000000, -596.000000)" stroke="#0a3a70" stroke-width="2" stroke-linecap="round" stroke-linejoin="round">
            <g id="Drops" transform="translate(861.000000, 605.000000)" sketch:type="MSShapeGroup">
                <path d="M4,11 C6.209139,11 8,9.209139 8,7 C8,4.790861 4,0 4,0 C4,0 0,4.790861 0,7 C0,9.209139 1.790861,11 4,11 Z" id="Oval-1264"></path>
                <path d="M4,27 C6.209139,27 8,25.209139 8,23 C8,20.790861 4,16 4,16 C4,16 0,20.790861 0,23 C0,25.209139 1.790861,27 4,27 Z" id="Oval-1264"></path>
                <path d="M4,43 C6.209139,43 8,41.209139 8,39 C8,36.790861 4,32 4,32 C4,32 0,36.790861 0,39 C0,41.209139 1.790861,43 4,43 Z" id="Oval-1264"></path>
                <path d="M16.5,11 C18.709139,11 20.5,9.209139 20.5,7 C20.5,4.790861 16.5,0 16.5,0 C16.5,0 12.5,4.790861 12.5,7 C12.5,9.209139 14.290861,11 16.5,11 Z" id="Oval-1262"></path>
                <path d="M16.5,27 C18.709139,27 20.5,25.209139 20.5,23 C20.5,20.790861 16.5,16 16.5,16 C16.5,16 12.5,20.790861 12.5,23 C12.5,25.209139 14.290861,27 16.5,27 Z" id="Oval-1262"></path>
                <path d="M16.5,43 C18.709139,43 20.5,41.209139 20.5,39 C20.5,36.790861 16.5,32 16.5,32 C16.5,32 12.5,36.790861 12.5,39 C12.5,41.209139 14.290861,43 16.5,43 Z" id="Oval-1262"></path>
                <path d="M29.5,11 C31.709139,11 33.5,9.209139 33.5,7 C33.5,4.790861 29.5,0 29.5,0 C29.5,0 25.5,4.790861 25.5,7 C25.5,9.209139 27.290861,11 29.5,11 Z" id="Oval-1263"></path>
                <path d="M29.5,27 C31.709139,27 33.5,25.209139 33.5,23 C33.5,20.790861 29.5,16 29.5,16 C29.5,16 25.5,20.790861 25.5,23 C25.5,25.209139 27.290861,27 29.5,27 Z" id="Oval-1263"></path>
                <path d="M29.5,43 C31.709139,43 33.5,41.209139 33.5,39 C33.5,36.790861 29.5,32 29.5,32 C29.5,32 25.5,36.790861 25.5,39 C25.5,41.209139 27.290861,43 29.5,43 Z" id="Oval-1263"></path>
            </g>
        </g>
    </g>
</svg>